<?xml version="1.0" encoding="UTF-8"?>
<svg version="1.1" xmlns="http://www.w3.org/2000/svg" width="32" height="32">
<path d="M0 0 C4.83858548 2.32968931 7.67031069 5.16141452 10 10 C10.45970012 14.09197853 10.56222931 18.15316189 9.35546875 22.1171875 C8.71137565 24.32478182 8.71137565 24.32478182 11 27 C11 28.32 11 29.64 11 31 C8.68756208 31.02685412 6.3750373 31.04632841 4.0625 31.0625 C2.77472656 31.07410156 1.48695312 31.08570312 0.16015625 31.09765625 C-3 31 -3 31 -4 30 C-4.886875 30.061875 -5.77375 30.12375 -6.6875 30.1875 C-12.06513733 29.88310543 -14.85406078 27.2665644 -18.375 23.375 C-20.57907893 18.79729761 -20.7971639 14.99447589 -20 10 C-15.83904681 1.35802029 -9.17013091 -1.46363653 0 0 Z M-13 5 C-13.7425 5.53625 -14.485 6.0725 -15.25 6.625 C-17.86035584 10.16762578 -18.20251513 13.65371369 -18 18 C-16.9529689 20.85688329 -16.9529689 20.85688329 -15 23 C-14.443125 23.7425 -13.88625 24.485 -13.3125 25.25 C-9.95393556 27.79161634 -7.17031983 27.72197868 -3 28 C-2.16121545 26.71186658 -1.32913217 25.41936744 -0.5 24.125 C-0.0359375 23.40570312 0.428125 22.68640625 0.90625 21.9453125 C2.16336501 20.08139534 2.16336501 20.08139534 2 18 C3.65 18.66 5.3 19.32 7 20 C8.77691113 16.44617774 7.99920487 12.74544718 7 9 C4.98873345 5.51092111 2.6322349 3.50774267 -1.22265625 2.30859375 C-6.04796387 1.54331124 -9.11566647 1.78155222 -13 5 Z M2 24 C1.34 25.65 0.68 27.3 0 29 C0.99 29 1.98 29 3 29 C3 27.35 3 25.7 3 24 C2.67 24 2.34 24 2 24 Z M5 24 C5 25.65 5 27.3 5 29 C5.99 29 6.98 29 8 29 C7.34 27.35 6.68 25.7 6 24 C5.67 24 5.34 24 5 24 Z " fill="#000000" transform="translate(21,1)"/>
<path d="M0 0 C0.66 0 1.32 0 2 0 C2.33 4.62 2.66 9.24 3 14 C-2 17 -2 17 -5 18 C-3 14 -3 14 -1.96875 12.1875 C-0.84325728 9.64606483 -0.59324494 7.51443591 -0.375 4.75 C-0.26285156 3.41195313 -0.26285156 3.41195313 -0.1484375 2.046875 C-0.09945313 1.37140625 -0.05046875 0.6959375 0 0 Z " fill="#000000" transform="translate(15,4)"/>
</svg>
